PathFileType	4	(X/Y/Z)	D:\Vicon data\Senior Design EMG regression\Subject 1- Steven\Session 1\steven - static trial01.trc
DataRate	CameraRate	NumFrames	NumMarkers	Units	OrigDataRate	OrigDataStartFrame	OrigNumFrames
100.0	100.0	5	60	mm	100.0	73	582	
Frame#	Time	HEAD			C7			CLAV			STUR			LSHO			LHAR2			LHME			LRAH			LRAD			LULN			LMCM			RSHO			RHAR2			RHME			RRAH			RRAD			RULN			RMCM			LASI			RASI			LPSI			RPSI			LLAT			LLFC			LKNE			LLAN			LHEE			LTOE			RLAT			RLFC			RKNE			RLAN			RHEE			RTOE			RSMT			RMAN			LSMT			LMAN			RSAT1			RSAT			RMFC			LSAT1			LSAT			LMFC			BARB			RHAR1			RHGT			RHHB			RHHF			RHLE			RMCR			RMCA			RMCI			LHHF			LHHB			LHGT			LHAR1			LHLE			LMCR			LMCI			
		X1	Y1	Z1	X2	Y2	Z2	X3	Y3	Z3	X4	Y4	Z4	X5	Y5	Z5	X6	Y6	Z6	X7	Y7	Z7	X8	Y8	Z8	X9	Y9	Z9	X10	Y10	Z10	X11	Y11	Z11	X12	Y12	Z12	X13	Y13	Z13	X14	Y14	Z14	X15	Y15	Z15	X16	Y16	Z16	X17	Y17	Z17	X18	Y18	Z18	X19	Y19	Z19	X20	Y20	Z20	X21	Y21	Z21	X22	Y22	Z22	X23	Y23	Z23	X24	Y24	Z24	X25	Y25	Z25	X26	Y26	Z26	X27	Y27	Z27	X28	Y28	Z28	X29	Y29	Z29	X30	Y30	Z30	X31	Y31	Z31	X32	Y32	Z32	X33	Y33	Z33	X34	Y34	Z34	X35	Y35	Z35	X36	Y36	Z36	X37	Y37	Z37	X38	Y38	Z38	X39	Y39	Z39	X40	Y40	Z40	X41	Y41	Z41	X42	Y42	Z42	X43	Y43	Z43	X44	Y44	Z44	X45	Y45	Z45	X46	Y46	Z46	X47	Y47	Z47	X48	Y48	Z48	X49	Y49	Z49	X50	Y50	Z50	X51	Y51	Z51	X52	Y52	Z52	X53	Y53	Z53	X54	Y54	Z54	X55	Y55	Z55	X56	Y56	Z56	X57	Y57	Z57	X58	Y58	Z58	X59	Y59	Z59	X60	Y60	Z60	
73	0.72	-77.186241	1645.582	-328.30765	-66.022141	1452.8923	-132.9225	-68.342392	1399.4333	-269.87265	-74.866791	1253.912	-311.59326	-181.5215	1470.9991	-178.97495	-357.25928	1452.1542	-188.48596	-477.3093	1357.1077	-169.94058	-455.41299	1426.9408	-262.5903	-480.0618	1398.8293	-401.84283	-538.2514	1426.0217	-394.90442	-514.08008	1413.8174	-490.42691	51.512192	1461.547	-170.15118	210.82997	1444.6602	-184.61516	347.07904	1345.1716	-178.83911	298.34201	1423.0686	-260.66144	291.46759	1398.001	-406.35492	351.52505	1435.2064	-405.67963	318.80338	1434.2714	-497.05081	-194.59267	965.58728	-303.14972	70.582932	994.42188	-280.20319	-133.3136	986.76324	-155.06471	-22.577208	987.52032	-142.84171	-216.43806	607.45612	-275.39636	-203.60902	501.99222	-239.76331	-162.13474	474.69058	-278.16232	-181.41583	93.352509	-174.00009	-134.62105	68.450226	-111.8623	-145.21727	49.552086	-372.23764	115.05809	683.98712	-269.6301	93.128044	502.95419	-248.88333	41.204594	477.88242	-294.47668	88.33783	104.36774	-188.59883	40.034237	63.3564	-119.27493	52.18243	47.436195	-382.93854	118.46413	40.390301	-336.79095	3.0898199	121.29689	-195.44386	-210.3858	43.706841	-323.32364	-101.70781	127.05995	-197.23189	86.870636	767.14948	-333.00977	43.081272	640.47284	-323.28989	-11.307252	490.91324	-239.51509	-208.4071	766.67731	-330.48416	-159.14317	631.99207	-322.17853	-108.10017	488.18457	-225.1593	-8.5083542	1285.8126	-83.466255	265.75458	1428.2432	-144.49619	132.01082	1461.4137	-158.97069	79.285408	1444.172	-118.75319	74.379532	1448.7007	-224.80614	356.62582	1426.8967	-172.68288	343.25125	1430.6377	-490.25134	355.53812	1424.5448	-450.4563	297.22055	1426.4977	-501.77203	-210.39021	1458.08	-226.58031	-214.68529	1453.9625	-132.70959	-299.43237	1467.7272	-149.97197	-411.46494	1442.9911	-142.0374	-494.38895	1437.8757	-165.94598	-539.97852	1409.9547	-483.13773	-495.64166	1411.3295	-493.91931
74	0.73	-77.057777	1645.5592	-328.33829	-66.027382	1452.8649	-132.96948	-68.286034	1399.4608	-269.88586	-74.805328	1253.9803	-311.67694	-181.50481	1471.0071	-179.0457	-357.24341	1452.1313	-188.64633	-477.29956	1357.0029	-170.24953	-455.4212	1426.8002	-262.79016	-479.93832	1398.8883	-402.16501	-538.133	1426.0624	-395.20026	-513.85187	1413.8726	-490.74695	51.542034	1461.5449	-170.11716	210.84644	1444.6213	-184.59538	347.08774	1345.0675	-178.81387	298.396	1423.0135	-260.60846	291.60611	1397.9268	-406.40704	351.59225	1435.1676	-405.64465	318.89529	1434.2211	-497.0174	-194.59496	965.61713	-303.20285	70.588966	994.43353	-280.25308	-133.28406	986.75269	-155.1235	-22.562027	987.51282	-142.88451	-216.42857	607.51483	-275.40311	-203.60712	502.04016	-239.7686	-162.12099	474.7135	-278.19592	-181.42775	93.358345	-173.98099	-134.60117	68.439728	-111.86668	-145.21237	49.59071	-372.21945	115.06657	684.00702	-269.65955	93.13443	502.99466	-248.89493	41.157024	477.88919	-294.45166	88.362053	104.41091	-188.58546	40.02824	63.363045	-119.27919	52.204449	47.497047	-382.93369	118.49009	40.409847	-336.785	3.0990105	121.313	-195.44614	-210.37231	43.734787	-323.31784	-101.70995	127.06487	-197.20851	86.912697	767.19031	-333.04803	43.122421	640.54181	-323.35522	-11.270786	490.97296	-239.57129	-208.38838	766.69214	-330.49561	-159.1478	632.02704	-322.20239	-108.03901	488.23007	-225.17233	-8.506278	1285.7888	-83.474365	265.75452	1428.1584	-144.47517	132.06476	1461.4124	-158.92412	79.298523	1444.1294	-118.74511	74.408066	1448.6885	-224.79253	356.65152	1426.7988	-172.63544	343.33536	1430.575	-490.24207	355.62991	1424.5089	-450.42584	297.28229	1426.4603	-501.72354	-210.36061	1458.0966	-226.67686	-214.70839	1453.9595	-132.77026	-299.43283	1467.7023	-150.14543	-411.48257	1442.9747	-142.28798	-494.40762	1437.8644	-166.26633	-539.74176	1409.9711	-483.36679	-495.38684	1411.3616	-494.18222
75	0.74	-76.951363	1645.5305	-328.39774	-66.028503	1452.8363	-133.01143	-68.281639	1399.4286	-269.93588	-74.785568	1253.9534	-311.78876	-181.52193	1470.9736	-179.14967	-357.24347	1452.0939	-188.89177	-477.28592	1356.953	-170.59796	-455.38565	1426.7858	-263.1026	-479.78381	1398.8662	-402.54251	-537.95251	1426.0397	-395.57474	-513.68884	1413.9194	-491.25323	51.509289	1461.4244	-170.14716	210.87828	1444.5553	-184.64671	347.09091	1344.9524	-178.784	298.43787	1422.9103	-260.60944	291.67947	1397.892	-406.32605	351.64523	1435.0625	-405.60672	318.94638	1434.1256	-497.01102	-194.55151	965.59149	-303.27563	70.60952	994.39844	-280.31662	-133.26878	986.75183	-155.17854	-22.522627	987.51245	-142.94789	-216.44974	607.48132	-275.43448	-203.61777	502.0206	-239.78914	-162.11023	474.68625	-278.22253	-181.41006	93.357887	-173.98055	-134.58707	68.457779	-111.8557	-145.19911	49.56102	-372.23566	115.1004	683.96912	-269.67645	93.186951	502.97241	-248.94667	41.205044	477.87607	-294.51498	88.358482	104.37498	-188.60931	40.049465	63.352959	-119.28206	52.21122	47.432747	-382.9425	118.44264	40.346451	-336.79492	3.1174815	121.27727	-195.46266	-210.36969	43.722801	-323.34277	-101.68671	127.03146	-197.23653	86.902161	767.12823	-333.07599	43.117958	640.49646	-323.39542	-11.26923	490.92133	-239.57156	-208.38597	766.6814	-330.56976	-159.14104	632.00671	-322.21518	-108.04861	488.18524	-225.20213	-8.5269928	1285.7687	-83.472443	265.76166	1428.0842	-144.47066	132.1075	1461.4843	-159.08273	79.317795	1444.0956	-118.73399	74.45575	1448.6388	-224.7816	356.68289	1426.6815	-172.59096	343.41452	1430.4987	-490.19315	355.65057	1424.385	-450.40979	297.36203	1426.3799	-501.72412	-210.3271	1458.0748	-226.83873	-214.77986	1453.9108	-132.92236	-299.45529	1467.6703	-150.30222	-411.53333	1442.9294	-142.55833	-494.43942	1437.8027	-166.58311	-539.49402	1410.0215	-483.87042	-495.21246	1411.3121	-494.53854
76	0.75	-76.833183	1645.4872	-328.42554	-66.084717	1452.8329	-133.05539	-68.12455	1399.5863	-270.0014	-74.748375	1253.9307	-311.84839	-181.55103	1470.933	-179.27258	-357.27023	1452.0208	-189.11722	-477.3017	1356.9177	-170.92772	-455.34973	1426.7784	-263.40488	-479.6499	1398.8785	-402.84146	-537.85303	1426.0321	-395.90512	-513.5036	1413.9568	-491.47391	51.51659	1461.3774	-170.15581	210.88985	1444.4524	-184.62413	347.08719	1344.8145	-178.75319	298.47162	1422.8319	-260.58813	291.55835	1397.8672	-406.17987	351.69037	1434.967	-405.58472	319.01614	1434.0455	-496.96222	-194.54099	965.5885	-303.35797	70.614777	994.37775	-280.3591	-133.26541	986.75031	-155.25816	-22.533129	987.5152	-142.97527	-216.41708	607.46637	-275.47891	-203.59644	501.99176	-239.82161	-162.09317	474.69266	-278.26239	-181.4604	93.342361	-174.01022	-134.62407	68.456497	-111.86026	-145.23184	49.527138	-372.23212	115.07162	683.94879	-269.72925	93.191872	502.95813	-248.9771	41.259933	477.84473	-294.5715	88.336937	104.35768	-188.60667	40.023346	63.319744	-119.29183	52.194004	47.411186	-382.9436	118.45842	40.361309	-336.79312	3.0963459	121.28847	-195.45779	-210.38933	43.692669	-323.33536	-101.71304	127.04256	-197.23659	86.893661	767.11713	-333.10425	43.119846	640.4574	-323.40915	-11.263067	490.92224	-239.57515	-208.36729	766.65771	-330.62207	-159.14352	631.94714	-322.27939	-108.03653	488.18198	-225.2854	-8.5762739	1285.7424	-83.496605	265.77789	1427.9772	-144.43811	132.1394	1461.4465	-159.10677	79.31823	1444.0465	-118.74299	74.486389	1448.6128	-224.8013	356.68701	1426.5562	-172.55576	343.50403	1430.4048	-490.17697	355.47278	1424.0902	-450.30368	297.41754	1426.3038	-501.67752	-210.31683	1458.0575	-226.97739	-214.81004	1453.8866	-133.06245	-299.49103	1467.6302	-150.47357	-411.57907	1442.8751	-142.83144	-494.4675	1437.7356	-166.92154	-539.33875	1410.0885	-484.66119	-495.01294	1411.4094	-494.83499
77	0.76	-76.708412	1645.5161	-328.52493	-66.108658	1452.8253	-133.09824	-68.198776	1399.4786	-270.05267	-74.723145	1253.9661	-311.85364	-181.549	1470.9465	-179.37885	-357.28586	1452.0127	-189.33437	-477.2915	1356.887	-171.21654	-455.32416	1426.7256	-263.64539	-479.47501	1398.947	-403.16302	-537.76556	1426.041	-396.20187	-513.32098	1414.0356	-491.84131	51.546089	1461.3936	-170.14937	210.92381	1444.3914	-184.60699	347.06003	1344.6775	-178.6981	298.49612	1422.7764	-260.52817	291.61642	1397.8243	-406.14517	351.75668	1434.902	-405.5369	319.12015	1433.9899	-496.9527	-194.53508	965.60205	-303.39093	70.635109	994.40387	-280.40753	-133.26895	986.78314	-155.29333	-22.512274	987.54401	-143.02377	-216.3799	607.4837	-275.49817	-203.57298	502.02573	-239.83813	-162.07106	474.69952	-278.28	-181.43233	93.378067	-173.9978	-134.60185	68.472015	-111.8705	-145.21829	49.57159	-372.23236	115.086	683.97961	-269.73917	93.1866	502.95584	-248.94713	41.240791	477.86334	-294.54623	88.361816	104.41222	-188.58926	40.053692	63.364037	-119.27855	52.206223	47.435806	-382.94125	118.44942	40.382305	-336.78821	3.1152689	121.30588	-195.46529	-210.35414	43.725025	-323.3298	-101.69717	127.06416	-197.19643	86.934868	767.14783	-333.15579	43.139484	640.48816	-323.44064	-11.244678	490.97101	-239.62038	-208.34134	766.67273	-330.65982	-159.12367	631.98712	-322.31729	-108.02596	488.24399	-225.31389	-8.5702724	1285.738	-83.511841	265.79984	1427.9025	-144.42754	132.17151	1461.4274	-159.0705	79.528481	1444.1029	-118.75256	74.517677	1448.5989	-224.79982	356.70282	1426.4497	-172.51022	343.56482	1430.3354	-490.10919	355.54929	1424.0552	-450.29437	297.49509	1426.2544	-501.62906	-210.31367	1458.0552	-227.07639	-214.88229	1453.8567	-133.21553	-299.52817	1467.6206	-150.62238	-411.6319	1442.8439	-143.0611	-494.49814	1437.6874	-167.21123	-539.15564	1410.2079	-485.50342	-494.77548	1411.4733	-495.05341
